
<svg version="1.1" xmlns="http://www.w3.org/2000/svg" width="170" height="32" viewBox="0 0 170 32">
<path fill="#fff" d="M16.016 1.161c-8.196-0.002-14.836 6.643-14.836 14.848 0 8.196 6.65 14.831 14.855 14.826 8.143-0.005 14.819-6.659 14.81-14.759-0.012-8.277-6.607-14.912-14.829-14.915zM26.889 6.585c1.56 1.84 2.635 3.92 3.187 6.396-0.148-0.117-0.22-0.156-0.268-0.215-0.933-1.125-2.139-1.854-3.446-2.474-0.876-0.416-1.694-0.45-2.529 0.019-0.4 0.225-0.775 0.215-1.213 0.096-3.625-0.988-7.26-1.955-10.89-2.929-0.184-0.050-0.366-0.103-0.608-0.172 0.055-0.388 0.103-0.708 0.158-1.086 0.213 0 0.402 0 0.591 0 4.726 0 9.454 0.002 14.18-0.010 0.357 0.002 0.601 0.098 0.837 0.376zM18.973 21.754c-1.295 0.302-2.493 0.584-3.762 0.878-2.233-3.867-4.487-7.77-6.762-11.711 0.287-0.203 0.548-0.39 0.854-0.608 0.156 0.144 0.311 0.275 0.457 0.421 2.826 2.824 5.638 5.664 8.49 8.461 0.546 0.534 0.833 1.067 0.727 1.819-0.034 0.244-0.005 0.495-0.005 0.739zM7.064 11.522c0.325-0.124 0.636-0.246 0.993-0.383 2.249 3.896 4.482 7.762 6.729 11.653-0.665 0.416-1.242 0.469-1.924 0.208-0.823-0.316-1.704-0.474-2.551-0.737-0.182-0.057-0.414-0.237-0.459-0.404-0.938-3.419-1.85-6.844-2.788-10.337zM9.394 22.038c-1.278-0.158-2.496-0.306-3.766-0.462 0-3.252 0-6.523 0-9.799 0.888-0.292 0.976-0.251 1.211 0.627 0.804 2.998 1.608 5.999 2.41 9 0.053 0.194 0.093 0.395 0.146 0.634zM18.892 19.007c-2.974-2.986-6.030-6.052-9.129-9.162 0.127-0.153 0.335-0.404 0.577-0.699 3.013 1.74 6.013 3.472 8.863 5.118-0.11 1.694-0.215 3.278-0.311 4.743zM10.572 8.756c0.141-0.337 0.273-0.646 0.424-1.005 3.862 1.034 7.693 2.060 11.68 3.128-1.345 0.802-2.379 1.749-3.089 3.084-3.044-1.759-6.011-3.472-9.014-5.207zM20.481 2.333c1.732 0.455 4.319 2.034 5.532 3.384-4.927 0-9.806 0-14.75 0-0.045-0.337-0.089-0.656-0.139-1.022 1.223-0.33 2.41-0.651 3.599-0.969 1.713-0.459 3.427-0.919 5.142-1.366 0.196-0.053 0.424-0.074 0.615-0.026zM19.119 1.926c0.012 0.048 0.022 0.098 0.034 0.146-2.704 0.725-5.408 1.452-8.143 2.187-0.151-0.342-0.287-0.653-0.414-0.943 2.599-2.127 5.544-1.859 8.523-1.39zM9.789 3.027c1.519 1.728 1.297 4.774-0.45 6.595-1.732 1.809-4.814 2.173-6.568 0.742 1.46-3.29 3.79-5.741 7.018-7.337zM2.781 10.986c0.29 0.132 0.548 0.251 0.89 0.407-0.591 2.213-1.184 4.429-1.799 6.736-0.598-1.881-0.101-5.707 0.909-7.143zM2.637 21.27c-0.457-1.036-0.682-2.051-0.309-3.226 0.675-2.127 1.187-4.305 1.776-6.504 0.33 0.048 0.629 0.091 0.974 0.141 0 3.273 0 6.542 0 9.904-0.718 0-1.409 0.014-2.099-0.014-0.12-0.002-0.285-0.17-0.342-0.302zM10.213 29.152c-1.668-0.715-3.118-1.752-4.405-3.027 0.036-0.050 0.069-0.103 0.105-0.153 1.472 1.003 2.943 2.008 4.417 3.010-0.041 0.057-0.079 0.115-0.117 0.17zM13.367 30.134c-1.034-0.122-1.902-0.534-2.692-1.285-1.57-1.498-3.412-2.637-5.37-3.575-0.768-0.369-1.084-1.086-1.551-1.756 3.422 0.074 11.122 4.092 13.168 6.949-1.283-0.115-2.422-0.199-3.556-0.333zM17.772 30.268c-0.153 0.019-0.366-0.101-0.486-0.22-3.716-3.747-8.239-5.968-13.369-7.009-0.577-0.117-0.73-0.471-0.933-1.022 7.284-0.086 13.711 1.945 19.205 6.959-1.474 0.718-2.917 1.113-4.417 1.292zM25.085 27.147c-0.177 0.146-0.359 0.292-0.55 0.421-0.428 0.294-0.852 0.593-1.297 0.861-0.706 0.424-0.787 0.39-1.33-0.455 1.208-0.479 2.4-0.95 3.592-1.421 0.031 0.048 0.065 0.096 0.096 0.144-0.17 0.151-0.335 0.306-0.51 0.45zM25.556 26.161c-0.713 0.108-1.402 0.409-2.082 0.675-0.663 0.258-1.299 0.581-1.986 0.895-0.51-0.4-1.050-0.821-1.649-1.29 2.417-1.072 4.886-1.548 7.569-1.699-0.546 0.718-0.976 1.29-1.852 1.419zM27.379 24.309c-2.637 0.124-5.19 0.622-7.626 1.673-0.184 0.079-0.483 0.048-0.668-0.048-0.459-0.235-0.883-0.536-1.445-0.888 3.441-1.29 6.868-1.644 10.409-1.333-0.067 0.421-0.287 0.577-0.67 0.596zM27.982 23.261c-2.477-0.208-4.939-0.117-7.363 0.457-1.048 0.249-2.067 0.605-3.104 0.904-0.177 0.050-0.4 0.134-0.543 0.072-0.837-0.369-1.656-0.778-2.498-1.18 2.682-1.625 11.079-2.005 14.13-0.656-0.050 0.378-0.285 0.428-0.622 0.402zM28.808 14.192c0.146 0 0.359 0.079 0.428 0.191 0.392 0.629 0.591 1.321 0.581 2.096-3.171 0-6.286 0-9.595 0 0.251-0.749 0.455-1.419 0.708-2.065 0.048-0.12 0.304-0.22 0.467-0.22 2.472-0.017 4.941-0.014 7.411-0.002zM21.435 13.584c0.455-0.388 0.866-0.847 1.371-1.149 2.395-1.426 2.173-1.431 4.546-0.024 0.512 0.304 0.933 0.768 1.395 1.158-0.031 0.045-0.065 0.091-0.096 0.139-2.376 0-4.752 0-7.131 0-0.029-0.043-0.057-0.084-0.086-0.124zM23.445 18.961c-0.105 0.146-0.309 0.309-0.471 0.316-0.847 0.031-1.694 0.014-2.589 0.014 0-0.77 0-1.51 0-2.29 3.142 0 6.269 0 9.428 0 0 0.751 0 1.476 0 2.29-0.928 0-1.792 0.014-2.654-0.014-0.144-0.005-0.318-0.175-0.416-0.311-0.861-1.228-2.419-1.228-3.297-0.005zM26.556 21.859c-1.010-0.103-1.945-0.199-2.895-0.297 0-0.656-0.060-1.292 0.017-1.914 0.086-0.711 0.797-1.199 1.515-1.153 0.689 0.045 1.311 0.596 1.354 1.283 0.043 0.67 0.010 1.345 0.010 2.082zM23.158 19.772c0 0.586 0 1.153 0 1.79-0.928 0-1.835 0-2.783 0 0-0.57 0-1.153 0-1.79 0.928 0 1.838 0 2.783 0zM28.944 22.397c-0.605-0.134-1.134-0.235-1.646-0.38-0.115-0.034-0.261-0.223-0.266-0.347-0.026-0.61-0.012-1.225-0.012-1.883 0.948 0 1.857 0 2.903 0-0.337 0.9-0.656 1.747-0.979 2.611zM25.355 10.928c-0.172-0.048-0.385-0.043-0.555 0.012-1.206 0.397-2.292 1.010-3.214 1.893-1.163 1.115-1.728 2.474-1.694 4.097 0.029 1.429 0.007 2.857 0.005 4.286 0 0.263 0.053 0.581-0.407 0.493 0-2.022-0.105-4.013 0.034-5.989 0.112-1.601 1.105-2.814 2.364-3.766 0.505-0.383 1.084-0.66 1.62-1.005 1.094-0.704 2.173-0.651 3.245 0.036 0.617 0.395 1.292 0.723 1.828 1.208 1.831 1.649 1.948 2.245 1.747 4.64-0.287-2.979-2.070-5.102-4.972-5.903z"></path>
<path fill="#fff" d="M15.963 32c-0.012 0-0.024 0-0.038 0-4.243-0.010-8.239-1.685-11.251-4.714-3.032-3.056-4.692-7.104-4.673-11.402 0.019-4.257 1.711-8.258 4.764-11.258 3.037-2.984 7.052-4.625 11.316-4.625 0.024 0 0.050 0 0.074 0 4.221 0.019 8.203 1.701 11.215 4.74 3.013 3.037 4.664 7.035 4.652 11.258-0.012 4.295-1.692 8.322-4.726 11.337-3.025 3.008-7.047 4.664-11.333 4.664zM16.080 0.57c-4.113 0-7.987 1.584-10.916 4.463-2.943 2.895-4.575 6.75-4.592 10.854-0.019 4.144 1.582 8.050 4.508 10.995 2.903 2.922 6.755 4.537 10.847 4.546 0.012 0 0.024 0 0.036 0 4.133 0 8.014-1.596 10.931-4.496 2.927-2.91 4.544-6.791 4.556-10.935v0c0.012-4.070-1.582-7.928-4.487-10.857-2.903-2.929-6.743-4.551-10.811-4.568-0.024-0.002-0.048-0.002-0.072-0.002z"></path>
<path fill="#fff" d="M48.487 6.19c1.084 0 2.371 0.261 3.123 0.333l-0.433 2.199h-0.491c0-1.505-1.273-1.981-2.443-1.981-2.228 0-3.702 1.792-3.702 4.135 0 2.603 1.821 4.353 4.18 4.353 1.807 0 2.907-1.027 2.907-1.027l0.203 0.304c0 0-1.084 1.677-3.601 1.677-2.575 0-5.032-1.764-5.032-4.889-0.005-2.948 2.178-5.104 5.288-5.104z"></path>
<path fill="#fff" d="M54.921 15.59c0.636-0.072 1.041-0.404 1.041-0.897v-2.948l-2.776-4.381c-0.347-0.55-0.766-0.636-0.766-0.636v-0.361h0.694c0.912 0 1.474-0.057 1.474-0.057l0.057 0.057c0 0-0.275 0.55 0.029 1.041l1.792 2.893c0.144 0.232 0.304 0.565 0.419 0.809l2.154-3.484c0.232-0.376 0.158-0.78-0.579-0.897v-0.361h2.357l0.057 0.203c0 0-0.565 0.189-0.998 0.883l-2.647 4.266v2.979c0 0.419-0.072 0.737-0.072 0.737l1.302 0.129-0.057 0.404-3.484 0.086v-0.464z"></path>
<path fill="#fff" d="M61.617 15.59c0.651-0.072 1.041-0.376 1.041-0.897v-6.509c0-0.998-0.232-1.287-1.187-1.46v-0.359h0.433c0.708 0 1.445-0.057 1.445-0.057s0.175 0.333 0.536 0.751l5.236 6.044c0.189 0.232 0.419 0.536 0.579 0.766v-6.016c0-0.636-0.014-0.969-1.187-1.084v-0.404h2.747l0.072 0.203c0 0-0.998 0.275-0.998 1.474v8.040h-0.376l-6.147-7.26c-0.175-0.203-0.376-0.476-0.522-0.694v6.566c0 0.433-0.072 0.78-0.072 0.78l1.302 0.086-0.057 0.404-2.85 0.086v-0.462z"></path>
<path fill="#fff" d="M74.459 15.59c0.636-0.072 1.041-0.404 1.041-0.897v-2.948l-2.776-4.381c-0.347-0.55-0.766-0.636-0.766-0.636v-0.361h0.694c0.912 0 1.474-0.057 1.474-0.057l0.057 0.057c0 0-0.275 0.55 0.029 1.041l1.792 2.893c0.144 0.232 0.304 0.565 0.419 0.809l2.154-3.484c0.232-0.376 0.158-0.78-0.579-0.897v-0.361h2.357l0.057 0.203c0 0-0.565 0.189-0.998 0.883l-2.647 4.266v2.979c0 0.419-0.072 0.737-0.072 0.737l1.302 0.129-0.057 0.404-3.484 0.086v-0.464z"></path>
<path fill="#fff" d="M81.155 15.59c0.651-0.072 1.041-0.376 1.041-0.897v-6.509c0-0.998-0.232-1.287-1.187-1.46v-0.359h0.433c0.708 0 1.445-0.057 1.445-0.057s0.175 0.333 0.536 0.751l5.236 6.044c0.189 0.232 0.419 0.536 0.579 0.766v-6.016c0-0.636-0.014-0.969-1.187-1.084v-0.404h2.747l0.072 0.203c0 0-0.998 0.275-0.998 1.474v8.040h-0.376l-6.147-7.26c-0.175-0.203-0.376-0.476-0.522-0.694v6.566c0 0.433-0.072 0.78-0.072 0.78l1.302 0.086-0.057 0.404-2.85 0.086v-0.462z"></path>
<path fill="#fff" d="M92.203 15.59c0.636-0.072 1.041-0.404 1.041-0.897v-6.911c0-0.694 0-0.84-1.070-1.055v-0.361h1.127c1.302 0 1.62-0.057 1.62-0.057l0.072 0.057c0 0-0.476 0.55-0.476 1.749v6.58c0 0.419-0.072 0.737-0.072 0.737l1.374 0.129-0.057 0.404-3.558 0.086v-0.462z"></path>
<path fill="#fff" d="M102.052 6.19c3.022 0 4.946 2.039 4.946 4.657 0 2.761-2.111 5.336-5.307 5.336-2.965 0-4.889-2.242-4.889-4.874 0-2.601 1.864-5.118 5.25-5.118zM101.977 15.604c2.271 0 3.587-2.285 3.587-4.396 0-2.17-1.359-4.439-3.759-4.439-2.257 0-3.573 2.039-3.573 4.166 0 2.154 1.359 4.668 3.745 4.668z"></path>
<path fill="#fff" d="M108.342 15.59c0.651-0.072 1.041-0.376 1.041-0.897v-6.509c0-0.998-0.232-1.287-1.187-1.46v-0.359h0.433c0.708 0 1.445-0.057 1.445-0.057s0.175 0.333 0.536 0.751l5.236 6.044c0.189 0.232 0.419 0.536 0.579 0.766v-6.016c0-0.636-0.014-0.969-1.187-1.084v-0.404h2.747l0.072 0.203c0 0-0.998 0.275-0.998 1.474v8.040h-0.376l-6.147-7.26c-0.175-0.203-0.376-0.476-0.522-0.694v6.566c0 0.433-0.072 0.78-0.072 0.78l1.302 0.086-0.057 0.404-2.85 0.086v-0.462z"></path>
<path fill="#fff" d="M123.31 7.782c0-0.694 0-0.84-1.070-1.055v-0.361h1.127c1.302 0 1.62-0.057 1.62-0.057l0.072 0.057c0 0-0.476 0.55-0.476 1.749v4.381c0 2.111 1.431 3.037 2.879 3.037 1.445 0 2.965-0.983 2.965-2.936v-4.743c0-0.636-0.014-0.969-1.173-1.084v-0.404h2.804l0.072 0.203c0 0-0.998 0.275-0.998 1.474v4.513c0 2.357-1.821 3.63-3.991 3.63-1.91 0-3.833-0.926-3.833-3.573v-4.831z"></path>
<path fill="#fff" d="M138.45 6.19c1.084 0 2.371 0.261 3.123 0.333l-0.433 2.199h-0.491c0-1.505-1.273-1.981-2.443-1.981-2.228 0-3.702 1.792-3.702 4.135 0 2.603 1.821 4.353 4.18 4.353 1.807 0 2.907-1.027 2.907-1.027l0.203 0.304c0 0-1.084 1.677-3.601 1.677-2.575 0-5.032-1.764-5.032-4.889-0.005-2.948 2.18-5.104 5.288-5.104z"></path>
<path fill="#fff" d="M143.092 15.59c0.651-0.072 1.041-0.419 1.041-0.94v-6.868c0-0.694 0-0.84-1.070-1.055v-0.361h1.127c1.302 0 1.62-0.057 1.62-0.057l0.072 0.057c0 0-0.476 0.55-0.476 1.749v2.69h5.379l0.144-0.144v-2.879c0-0.694 0-0.84-1.070-1.055v-0.361h1.127c1.302 0 1.62-0.043 1.62-0.043l0.072 0.057c0 0-0.476 0.536-0.476 1.735v6.537c0 0.433-0.072 0.78-0.072 0.78l1.302 0.129-0.057 0.404-3.484 0.086v-0.462c0.637-0.072 1.041-0.404 1.041-0.897v-3.281h-5.379l-0.144 0.144v3.094c0 0.433-0.072 0.78-0.072 0.78l1.302 0.129-0.057 0.404-3.486 0.086v-0.459z"></path>
<path fill="#fff" d="M153.721 15.59c0.608-0.057 0.854-0.361 0.969-0.651l3.427-8.533 0.593-0.129 3.211 8.215c0.39 0.983 0.651 1.055 1.098 1.127l-0.057 0.39h-0.622c-0.536 0-2.199 0.043-2.199 0.043v-0.491c0.404-0.014 0.766-0.129 0.608-0.565l-0.883-2.314h-3.455l-0.189 0.144-0.998 2.603 1.23 0.175-0.057 0.404h-2.675v-0.419zM158.102 7.896l-1.606 4.18h3.137l-1.244-3.297c-0.112-0.29-0.23-0.665-0.287-0.883z"></path>
<path fill="#fff" d="M163.699 15.59c0.651-0.072 1.041-0.419 1.041-0.94v-6.868c0-0.694-0.072-0.84-1.187-1.055v-0.361h5.815c0.593 0 1.041-0.057 1.041-0.057l-0.447 2.414h-0.491c0.072-1.488-0.404-1.792-1.563-1.792h-1.749l-0.144 0.144v3.833h2.575l0.115-0.823 0.536-0.086v2.541h-0.68v-1.070h-2.4l-0.144 0.144v3.037c0 0.433-0.072 0.78-0.072 0.78l1.591 0.129-0.057 0.404-3.774 0.086v-0.459z"></path>
<path fill="#fff" d="M44.816 27.686h-0.756v-3.979h-1.362v-0.648h3.479v0.648h-1.362v3.979z"></path>
<path fill="#fff" d="M48.473 25.836v1.85h-0.756v-4.628h1.306c0.598 0 1.038 0.112 1.326 0.335s0.431 0.562 0.431 1.012c0 0.577-0.299 0.986-0.9 1.232l1.306 2.048h-0.861l-1.108-1.85h-0.744zM48.473 25.209h0.526c0.352 0 0.608-0.065 0.766-0.196s0.237-0.325 0.237-0.581c0-0.261-0.086-0.45-0.256-0.562-0.17-0.115-0.428-0.17-0.773-0.17h-0.5v1.51z"></path>
<path fill="#fff" d="M55.56 27.686l-0.462-1.285h-1.768l-0.452 1.285h-0.797l1.732-4.647h0.823l1.732 4.647h-0.809zM54.897 25.747l-0.433-1.259c-0.031-0.084-0.077-0.218-0.132-0.4s-0.093-0.313-0.115-0.4c-0.057 0.258-0.141 0.543-0.251 0.852l-0.419 1.206h1.35z"></path>
<path fill="#fff" d="M61.66 27.686h-0.928l-2.276-3.687h-0.026l0.017 0.206c0.029 0.392 0.045 0.751 0.045 1.077v2.405h-0.687v-4.628h0.919l2.268 3.668h0.019c-0.005-0.048-0.012-0.225-0.026-0.531-0.012-0.304-0.019-0.543-0.019-0.713v-2.424h0.694v4.628z"></path>
<path fill="#fff" d="M67.821 25.365c0 0.562-0.108 1.034-0.321 1.419-0.215 0.385-0.526 0.653-0.936 0.811l1.108 1.194h-1.019l-0.873-1.038h-0.124c-0.699 0-1.235-0.208-1.61-0.622s-0.562-1.005-0.562-1.768c0-0.763 0.189-1.35 0.565-1.761 0.376-0.409 0.914-0.615 1.613-0.615 0.687 0 1.22 0.208 1.596 0.625s0.565 1 0.565 1.756zM64.287 25.365c0 0.57 0.115 1.003 0.345 1.297s0.572 0.443 1.022 0.443c0.45 0 0.79-0.146 1.017-0.438 0.23-0.292 0.345-0.725 0.345-1.302 0-0.567-0.112-0.998-0.34-1.292s-0.565-0.44-1.015-0.44c-0.455 0-0.797 0.146-1.027 0.44s-0.347 0.725-0.347 1.292z"></path>
<path fill="#fff" d="M73.272 23.058v2.994c0 0.342-0.074 0.641-0.22 0.897s-0.359 0.455-0.636 0.591c-0.278 0.139-0.61 0.208-0.995 0.208-0.574 0-1.019-0.151-1.34-0.455-0.318-0.304-0.479-0.723-0.479-1.254v-2.982h0.759v2.929c0 0.383 0.089 0.663 0.266 0.845s0.45 0.273 0.816 0.273c0.713 0 1.070-0.376 1.070-1.125v-2.922h0.761z"></path>
<path fill="#fff" d="M75.285 27.686v-4.628h0.756v4.628h-0.756z"></path>
<path fill="#fff" d="M78.094 27.686v-4.628h0.756v3.979h1.96v0.648h-2.716z"></path>
<path fill="#fff" d="M82.437 27.686v-4.628h0.756v4.628h-0.756z"></path>
<path fill="#fff" d="M86.842 27.686h-0.756v-3.979h-1.362v-0.648h3.479v0.648h-1.362v3.979z"></path>
<path fill="#fff" d="M91.052 25.168l1.096-2.111h0.823l-1.541 2.833v1.795h-0.759v-1.768l-1.536-2.86h0.823l1.094 2.111z"></path>
<path fill="#fff" d="M96.617 26.46c0-0.278 0.067-0.517 0.203-0.723 0.134-0.206 0.378-0.409 0.732-0.613-0.201-0.235-0.337-0.433-0.409-0.593s-0.11-0.328-0.11-0.503c0-0.321 0.115-0.574 0.345-0.759 0.23-0.187 0.536-0.278 0.924-0.278 0.373 0 0.668 0.091 0.881 0.27s0.321 0.424 0.321 0.73c0 0.242-0.072 0.459-0.213 0.656-0.144 0.196-0.38 0.392-0.713 0.589l1.096 1.058c0.17-0.225 0.313-0.558 0.428-0.993h0.766c-0.148 0.598-0.385 1.089-0.708 1.464l0.952 0.921h-0.96l-0.471-0.459c-0.215 0.172-0.445 0.304-0.689 0.39-0.244 0.089-0.514 0.132-0.809 0.132-0.486 0-0.866-0.115-1.144-0.345-0.285-0.232-0.421-0.548-0.421-0.945zM98.211 27.109c0.385 0 0.715-0.112 0.991-0.34l-1.213-1.194c-0.223 0.144-0.378 0.278-0.462 0.404-0.084 0.124-0.127 0.268-0.127 0.428 0 0.206 0.074 0.376 0.22 0.505 0.148 0.132 0.345 0.196 0.591 0.196zM97.74 24.053c0 0.134 0.036 0.258 0.105 0.376 0.072 0.117 0.17 0.244 0.297 0.376 0.239-0.134 0.407-0.261 0.502-0.378s0.144-0.249 0.144-0.395c0-0.136-0.045-0.246-0.139-0.33-0.091-0.081-0.213-0.124-0.366-0.124-0.168 0-0.299 0.043-0.397 0.129-0.096 0.091-0.146 0.203-0.146 0.347z"></path>
<path fill="#fff" d="M107.735 26.429c0 0.412-0.148 0.735-0.447 0.969-0.297 0.235-0.708 0.352-1.232 0.352s-0.952-0.081-1.285-0.244v-0.715c0.211 0.098 0.436 0.177 0.672 0.235s0.459 0.086 0.663 0.086c0.299 0 0.522-0.057 0.663-0.17 0.144-0.115 0.213-0.268 0.213-0.459 0-0.172-0.065-0.321-0.196-0.44s-0.402-0.263-0.811-0.428c-0.421-0.17-0.72-0.366-0.893-0.586s-0.258-0.483-0.258-0.792c0-0.385 0.136-0.689 0.412-0.912s0.644-0.333 1.106-0.333c0.443 0 0.885 0.098 1.323 0.292l-0.242 0.617c-0.412-0.172-0.778-0.258-1.101-0.258-0.244 0-0.431 0.053-0.558 0.16s-0.189 0.246-0.189 0.424c0 0.12 0.026 0.223 0.077 0.309s0.134 0.165 0.251 0.242c0.115 0.077 0.325 0.177 0.627 0.302 0.34 0.141 0.589 0.273 0.747 0.395s0.275 0.261 0.349 0.414c0.072 0.151 0.11 0.333 0.11 0.543z"></path>
<path fill="#fff" d="M112.078 27.686h-2.618v-4.628h2.618v0.639h-1.862v1.259h1.744v0.634h-1.744v1.452h1.862v0.644z"></path>
<path fill="#fff" d="M114.664 25.836v1.85h-0.756v-4.628h1.306c0.598 0 1.038 0.112 1.326 0.335s0.431 0.562 0.431 1.012c0 0.577-0.299 0.986-0.9 1.232l1.306 2.048h-0.861l-1.108-1.85h-0.744zM114.664 25.209h0.526c0.352 0 0.608-0.065 0.766-0.196s0.237-0.325 0.237-0.581c0-0.261-0.086-0.45-0.256-0.562-0.17-0.115-0.428-0.17-0.773-0.17h-0.5v1.51z"></path>
<path fill="#fff" d="M121.499 27.686h-2.618v-4.628h2.618v0.639h-1.862v1.259h1.744v0.634h-1.744v1.452h1.862v0.644z"></path>
<path fill="#fff" d="M127.184 27.686h-0.928l-2.276-3.687h-0.026l0.017 0.206c0.029 0.392 0.045 0.751 0.045 1.077v2.405h-0.687v-4.628h0.919l2.268 3.668h0.019c-0.005-0.048-0.012-0.225-0.026-0.531-0.012-0.304-0.019-0.543-0.019-0.713v-2.424h0.694v4.628z"></path>
<path fill="#fff" d="M129.237 27.686v-4.628h0.756v4.628h-0.756z"></path>
<path fill="#fff" d="M133.642 27.686h-0.756v-3.979h-1.362v-0.648h3.479v0.648h-1.362v3.979z"></path>
<path fill="#fff" d="M137.849 25.168l1.096-2.111h0.823l-1.541 2.833v1.795h-0.759v-1.768l-1.536-2.86h0.823l1.094 2.111z"></path>
</svg>
