<?xml version="1.0" standalone="no"?>
<!DOCTYPE svg PUBLIC "-//W3C//DTD SVG 20010904//EN"
 "http://www.w3.org/TR/2001/REC-SVG-20010904/DTD/svg10.dtd">
<svg version="1.0" xmlns="http://www.w3.org/2000/svg"
 width="1000.000000pt" height="1000.000000pt" viewBox="0 0 1000.000000 1000.000000"
 preserveAspectRatio="xMidYMid meet">
<metadata>
Created by potrace 1.14, written by Peter Selinger 2001-2017
</metadata>
<g transform="translate(0.000000,1000.000000) scale(0.100000,-0.100000)"
fill="#000000" stroke="none">
<path d="M4703 8850 c-39 -4 -101 -11 -137 -14 -36 -4 -75 -9 -88 -11 -68 -11
-266 -45 -283 -49 -46 -9 -309 -77 -317 -82 -4 -3 -16 -7 -25 -9 -27 -6 -209
-70 -293 -103 -166 -66 -364 -165 -534 -266 -392 -233 -708 -505 -1025 -881
-87 -104 -271 -364 -325 -460 -9 -16 -33 -57 -52 -90 -43 -75 -149 -292 -197
-405 -96 -227 -178 -500 -221 -735 -21 -111 -27 -148 -36 -211 -12 -92 -19
-154 -25 -229 -6 -83 -6 -506 0 -585 8 -108 24 -248 30 -270 2 -8 7 -37 10
-65 4 -27 8 -57 10 -65 3 -8 7 -33 11 -55 12 -79 84 -353 129 -487 86 -260
252 -617 365 -784 16 -25 30 -47 30 -50 0 -3 26 -42 57 -87 444 -641 992
-1101 1668 -1399 192 -85 477 -181 602 -204 12 -2 34 -9 48 -14 14 -5 25 -8
25 -5 0 2 15 -1 32 -6 33 -9 221 -44 293 -54 161 -23 286 -30 535 -30 305 0
392 6 634 46 166 27 156 25 313 63 417 103 844 292 1198 529 91 60 269 191
293 214 7 7 34 29 59 50 135 110 350 325 474 473 388 466 648 980 793 1565 19
77 37 154 39 170 3 17 12 73 20 125 22 134 30 201 42 345 8 84 7 485 0 570
-12 147 -21 217 -35 305 -5 30 -12 73 -16 95 -3 22 -7 42 -9 45 -2 3 -6 25
-10 50 -4 24 -18 87 -32 139 -13 53 -26 103 -28 111 -3 13 -36 121 -65 210
-15 49 -72 196 -96 248 -13 29 -24 55 -24 58 0 8 -109 224 -155 309 -79 145
-253 406 -346 520 -400 488 -830 835 -1353 1090 -387 189 -830 320 -1221 360
-33 4 -71 9 -85 12 -42 8 -600 11 -677 3z"/>
</g>
</svg>
